<svg width="84" height="37" viewBox="0 0 84 37" fill="none" xmlns="http://www.w3.org/2000/svg">
<path d="M82.3635 28.0725C81.7706 27.6439 80.2838 27.5011 79.0797 30.3582C77.5747 33.9296 74.9701 33.9931 74.4277 31.5011C73.7436 28.358 74.0172 18.2151 71.9649 18.5008C70.8717 18.653 70.5966 22.0723 70.5966 24.9294C70.5966 27.7865 69.9306 31.5011 67.8601 31.5011C66.0814 31.5011 65.671 28.5008 65.1237 25.9294C64.5764 23.358 62.7976 23.6437 62.7976 26.7865C62.7976 30.633 62.7976 35.358 60.6085 35.358C56.7676 35.358 57.7351 17.3584 56.9142 4.07259C56.6759 0.215521 53.3568 -0.21296 53.2199 9.2156C53.0684 19.6586 52.399 24.9291 52.2622 25.9294C52.1253 26.9297 51.4412 29.3583 49.3889 26.644C47.747 24.4726 46.4643 25.358 46.1051 26.644C45.1473 30.0723 44.5726 33.6152 42.8213 33.5009C40.4953 33.3491 40.3585 19.6438 38.9902 10.6437C38.6427 8.35804 36.5274 8.35804 36.5274 12.0723C36.5274 15.9585 36.801 21.5008 35.1591 23.0723C34.2915 23.9027 33.2094 23.6438 32.6963 21.5008C32.3679 20.1294 32.0122 10.6437 31.4649 5.78654C30.9176 2.21518 28.8652 2.9294 28.3179 5.78654C27.5517 9.78661 25.9813 25.2909 22.5713 21.5008C18.3297 16.7866 16.189 20.3644 15.3196 16.2151C14.3618 11.6438 14.0882 8.35804 9.84663 10.6437C5.64706 12.9067 3.14224 11.1675 1.50035 10.6437" stroke="url(#paint0_linear_1942_184)" stroke-width="3" stroke-linecap="round" stroke-linejoin="round"/>
<defs>
<linearGradient id="paint0_linear_1942_184" x1="3.82637" y1="10.7861" x2="78.1852" y2="44.7006" gradientUnits="userSpaceOnUse">
<stop stop-color="#0075FF" stop-opacity="0"/>
<stop offset="1" stop-color="#0075FF"/>
</linearGradient>
</defs>
</svg>
