<svg width="84" height="52" viewBox="0 0 84 52" fill="none" xmlns="http://www.w3.org/2000/svg">
<path d="M4.78391 30.8579C3.57985 28.0007 2.09303 28.1436 1.50012 28.5721V51.8571H82.3633V11.1433C80.7214 11.6672 78.2166 13.4064 74.017 11.1433C69.7755 8.8577 69.5018 12.1434 68.544 16.7148C67.6747 20.8641 65.5339 17.2863 61.2924 22.0005C57.8823 25.7905 56.312 10.2863 55.5457 6.28621C54.9984 3.42906 52.9461 2.71484 52.3988 6.28621C51.8515 11.1433 51.4957 20.6291 51.1674 22.0005C50.6542 24.1434 49.5721 24.4024 48.7045 23.572C47.0626 22.0005 47.3363 16.4581 47.3363 12.572C47.3363 8.8577 45.2209 8.8577 44.8734 11.1433C43.5052 20.1434 43.3684 33.8488 41.0424 34.0006C39.291 34.1148 38.7163 30.572 37.7586 27.1437C37.3993 25.8577 36.1167 24.9723 34.4748 27.1437C32.4224 29.858 31.7383 27.4294 31.6015 26.4291C31.4646 25.4287 30.7952 20.1583 30.6437 9.71526C30.5069 0.286704 27.1878 0.715185 26.9494 4.57226C26.1285 17.858 27.096 35.8576 23.2552 35.8576C21.066 35.8576 21.066 31.1326 21.066 27.2862C21.066 24.1433 19.2873 23.8576 18.74 26.4291C18.1927 29.0005 17.7822 32.0008 16.0035 32.0008C13.933 32.0008 13.267 28.2862 13.267 25.4291C13.267 22.5719 12.9919 19.1527 11.8988 19.0005C9.84641 18.7148 10.1201 28.8576 9.43593 32.0008C8.89355 34.4928 6.28897 34.4293 4.78391 30.8579Z" fill="url(#paint0_linear_580_2850)"/>
<path d="M1.50012 28.5721C2.09303 28.1436 3.57985 28.0007 4.78391 30.8579C6.28897 34.4293 8.89355 34.4928 9.43593 32.0008C10.1201 28.8576 9.84641 18.7148 11.8988 19.0005C12.9919 19.1527 13.267 22.5719 13.267 25.4291C13.267 28.2862 13.933 32.0008 16.0035 32.0008C17.7822 32.0008 18.1927 29.0005 18.74 26.4291C19.2873 23.8576 21.066 24.1433 21.066 27.2862C21.066 31.1326 21.066 35.8576 23.2552 35.8576C27.096 35.8576 26.1285 17.858 26.9494 4.57226C27.1878 0.715186 30.5069 0.286704 30.6437 9.71526C30.7952 20.1583 31.4646 25.4287 31.6015 26.4291C31.7383 27.4294 32.4224 29.858 34.4748 27.1437C36.1167 24.9723 37.3993 25.8577 37.7586 27.1437C38.7163 30.572 39.291 34.1148 41.0424 34.0006C43.3684 33.8488 43.5052 20.1434 44.8734 11.1433C45.2209 8.8577 47.3363 8.8577 47.3363 12.572C47.3363 16.4581 47.0626 22.0005 48.7045 23.572C49.5721 24.4024 50.6542 24.1434 51.1674 22.0005C51.4957 20.6291 51.8515 11.1433 52.3988 6.28621C52.9461 2.71484 54.9984 3.42906 55.5457 6.28621C56.312 10.2863 57.8823 25.7905 61.2924 22.0005C65.5339 17.2863 67.6747 20.8641 68.544 16.7148C69.5018 12.1434 69.7755 8.8577 74.017 11.1433C78.2166 13.4064 80.7214 11.6672 82.3633 11.1433" stroke="url(#paint1_linear_580_2850)" stroke-width="3" stroke-linecap="round" stroke-linejoin="round"/>
<defs>
<linearGradient id="paint0_linear_580_2850" x1="41.9317" y1="2" x2="41.9317" y2="51.8571" gradientUnits="userSpaceOnUse">
<stop stop-color="#01B574" stop-opacity="0.14"/>
<stop offset="1" stop-color="#01B574" stop-opacity="0"/>
</linearGradient>
<linearGradient id="paint1_linear_580_2850" x1="80.0373" y1="11.2857" x2="5.67841" y2="45.2003" gradientUnits="userSpaceOnUse">
<stop stop-color="#01B574"/>
<stop offset="1" stop-color="#01B574" stop-opacity="0"/>
</linearGradient>
</defs>
</svg>
